PathFileType	4	(X/Y/Z)	E:\3-PhD\Data\MocapData\ElaboratedData\012\pre\dynamicElaborations\RunA1\RunA1.trc
DataRate	CameraRate	NumFrames	NumMarkers	Units	OrigDataRate	DataStartFrame
200	200	6	56	mm	200	473
Frame#	Time	FHD			LBHD			RBHD			C7			T10			CLAV			LSHO			LUUPA			LMUPA			LDUPA			LLEP			LMEP			LRAD			LUL			LRFIN			RSHO			RUPA1			RMUPA			RDUPA			RLEP			RMEP			RRAD			RUL			RUFIN			LASI			RASI			USACR			LSACR			RSACR			LTHI1			LTHI2			LTHI3			LTHI4			LLFC			LTIB1			LTIB2			LTIB3			LTIB4			LHEE			LMT1			LMT5			LMT2			RTHI			RTHI2			RTHI3			RTHI4			RLFC			RTIB1			RTIB2			RTIB3			RTIB4			RLMAL			RHEE			RMT1			RMT2			RMT5		
		X1	Y1	Z1	X2	Y2	Z2	X3	Y3	Z3	X4	Y4	Z4	X5	Y5	Z5	X6	Y6	Z6	X7	Y7	Z7	X8	Y8	Z8	X9	Y9	Z9	X10	Y10	Z10	X11	Y11	Z11	X12	Y12	Z12	X13	Y13	Z13	X14	Y14	Z14	X15	Y15	Z15	X16	Y16	Z16	X17	Y17	Z17	X18	Y18	Z18	X19	Y19	Z19	X20	Y20	Z20	X21	Y21	Z21	X22	Y22	Z22	X23	Y23	Z23	X24	Y24	Z24	X25	Y25	Z25	X26	Y26	Z26	X27	Y27	Z27	X28	Y28	Z28	X29	Y29	Z29	X30	Y30	Z30	X31	Y31	Z31	X32	Y32	Z32	X33	Y33	Z33	X34	Y34	Z34	X35	Y35	Z35	X36	Y36	Z36	X37	Y37	Z37	X38	Y38	Z38	X39	Y39	Z39	X40	Y40	Z40	X41	Y41	Z41	X42	Y42	Z42	X43	Y43	Z43	X44	Y44	Z44	X45	Y45	Z45	X46	Y46	Z46	X47	Y47	Z47	X48	Y48	Z48	X49	Y49	Z49	X50	Y50	Z50	X51	Y51	Z51	X52	Y52	Z52	X53	Y53	Z53	X54	Y54	Z54	X55	Y55	Z55	X56	Y56	Z56	

557	2.780000	-1220.133860	1783.885590	382.602638	-1364.308308	1744.090904	271.420869	-1360.272599	1736.525756	423.621026	-1398.402531	1569.747002	346.228911	-1506.753447	1238.316928	356.510818	-1265.470546	1467.494462	354.973807	-1283.798441	1579.956629	208.793307	-1254.653556	1375.845096	96.864629	-1214.889420	1357.583229	119.002796	-1239.687752	1308.011515	95.378772	-1196.036411	1228.412490	105.890260	-1257.539053	1201.582402	166.798488	-1045.691011	1278.393827	331.500000	-1003.116129	1220.231997	300.824281	-975.282339	1303.908144	373.419023	-1321.462223	1523.816781	529.152084	-1541.096526	1446.845284	573.315686	-1537.581610	1408.866736	605.558750	-1594.046967	1407.121470	591.900079	-1651.753866	1364.370263	611.956305	-1653.666423	1324.133566	540.572961	-1595.197145	1099.042364	704.532687	-1668.424679	1101.130447	732.058494	-1598.213300	1016.712354	744.108700	-1444.488561	998.370434	198.789909	-1400.649990	987.070704	427.052006	-1562.154109	1123.147704	367.729546	-1587.104210	1098.701616	343.111386	-1575.025987	1095.953189	399.572361	-1612.563236	767.266930	157.694615	-1591.877626	685.192378	151.244420	-1545.374089	676.286230	153.700202	-1629.023244	638.858777	164.459597	-1671.143628	483.801778	178.047131	-1743.594341	315.879757	259.810483	-1798.159464	296.306506	196.505387	-1773.434720	275.084068	230.122781	-1826.242269	221.042203	269.276669	-2015.873276	116.123713	309.290640	-1816.574400	54.168057	314.801246	-1853.771227	43.538416	217.660179	-1810.389152	50.036936	260.240729	-1336.588255	761.829226	506.119132	-1270.286298	748.616441	495.430847	-1247.737770	768.247210	478.689470	-1240.454681	670.348836	487.235604	-1200.049550	579.730854	455.636084	-1270.412595	476.215780	412.501497	-1367.423038	498.641763	455.826859	-1352.051893	458.970443	438.717899	-1391.102535	428.426524	408.845125	-1570.591385	407.739049	416.096538	-1635.545358	421.426654	363.388371	-1513.943898	231.639167	370.633036	-1506.171771	242.995361	412.229164	-1544.652294	272.799713	461.741782	
558	2.785000	-1192.398457	1785.656847	383.786882	-1336.829167	1745.540470	273.001042	-1332.257202	1738.014553	425.180902	-1369.878523	1570.959641	346.540288	-1476.353798	1238.705878	351.928729	-1236.768275	1469.736635	356.786226	-1253.140550	1583.161727	211.881603	-1218.018200	1380.750803	99.695199	-1179.220483	1362.575975	123.215165	-1202.554218	1313.092154	98.264355	-1159.137182	1233.918872	109.233546	-1222.223021	1206.265750	168.528818	-1016.948282	1288.510994	339.069218	-972.590848	1230.791420	310.097541	-948.074899	1315.661701	382.249053	-1294.093276	1525.430859	529.745299	-1514.013505	1452.744351	570.330830	-1512.035828	1415.449899	603.249189	-1568.094164	1414.425702	588.757109	-1626.912730	1373.057967	608.601129	-1628.662857	1331.349980	537.975723	-1572.939310	1109.295313	707.305686	-1646.812022	1112.059539	732.916427	-1576.740263	1027.452909	748.432583	-1411.399697	996.539817	198.022311	-1369.143863	989.727688	426.728516	-1530.518326	1122.824053	364.569851	-1554.620702	1098.011986	340.259858	-1543.730265	1096.186912	396.735365	-1587.483583	769.492400	156.995573	-1570.514227	686.399427	151.348037	-1524.293224	675.799285	154.225768	-1609.733082	641.905240	164.301740	-1659.270729	489.210398	178.150245	-1734.138665	321.434380	258.776990	-1789.155355	303.213660	195.319966	-1764.657743	281.472094	228.558917	-1817.751794	227.289404	267.300790	-2008.726134	127.818897	307.020757	-1815.216180	53.785332	314.219309	-1852.759834	44.329329	217.185224	-1809.271038	49.105890	259.812315	-1301.604900	768.803579	505.375075	-1234.842960	757.928055	494.617806	-1213.075125	778.606284	478.125237	-1202.382518	680.604296	485.944983	-1158.896901	590.169367	455.265090	-1221.794241	481.070578	412.558984	-1320.024918	496.427100	456.030403	-1301.866411	457.887627	438.960542	-1338.686220	424.713569	409.023969	-1516.709431	390.664514	416.794905	-1582.576467	399.331493	363.883233	-1446.939843	219.294463	371.822670	-1440.469909	231.183336	413.402983	-1481.011034	258.151125	462.745090	
559	2.790000	-1164.578137	1787.508405	385.118236	-1309.288721	1747.190595	274.729250	-1304.174707	1739.666907	426.889020	-1341.329578	1572.309947	347.011241	-1445.913138	1239.269997	347.140023	-1208.099924	1472.117543	358.672370	-1222.702635	1586.372125	215.050290	-1181.694253	1385.938382	102.604444	-1143.945533	1367.720348	127.485119	-1165.707476	1318.439598	100.993183	-1122.795421	1239.602530	112.074559	-1187.554113	1210.878436	169.400774	-988.907456	1297.132455	346.101943	-942.938550	1239.939117	318.596302	-921.710805	1325.432300	390.758626	-1266.526782	1527.110822	530.425812	-1486.513673	1458.243622	567.955079	-1485.892506	1421.410565	601.124181	-1541.562085	1421.041682	585.978185	-1601.314134	1381.001868	605.297532	-1603.015494	1338.113637	535.247224	-1549.279017	1118.799455	709.361971	-1623.554436	1122.059900	733.541038	-1553.594731	1037.287048	751.787422	-1377.908110	994.909549	197.581520	-1337.506236	992.858825	426.643117	-1498.751462	1122.639794	361.068217	-1522.020444	1097.499266	336.980908	-1512.345598	1096.493495	393.459257	-1561.411602	772.122831	156.125021	-1547.935953	688.174910	151.508508	-1502.056550	676.009178	155.064602	-1589.110182	645.537873	164.120113	-1645.682527	495.532584	178.444735	-1723.046784	327.769454	257.701426	-1778.602039	311.075595	194.125066	-1754.316824	288.787406	226.858485	-1807.579790	234.250364	265.116181	-1999.636351	140.822299	304.652465	-1813.339499	53.754522	313.560717	-1851.327001	45.603219	216.680180	-1807.820040	48.407269	259.301888	-1267.502797	775.098569	504.574792	-1200.398061	766.244210	493.916817	-1179.298843	787.904269	477.868438	-1165.761923	689.762522	484.566361	-1119.353422	599.721894	455.094994	-1174.196083	485.559352	412.680031	-1273.149322	493.563883	456.319852	-1252.232150	456.415945	439.199071	-1286.557620	420.768042	409.123925	-1462.127885	373.227757	417.157423	-1528.517983	376.732853	364.051213	-1379.346538	207.787567	372.329578	-1374.238317	219.996479	413.944738	-1416.725354	243.720628	463.136131	
560	2.795000	-1136.671042	1789.401724	386.575431	-1281.676316	1748.998704	276.575143	-1276.026757	1741.438100	428.712969	-1312.756098	1573.754309	347.615657	-1415.443929	1239.981829	342.225726	-1179.449774	1474.594446	360.596211	-1192.516507	1589.536674	218.255356	-1145.801529	1391.286784	105.529424	-1109.139097	1372.914193	131.698401	-1129.278339	1323.934562	103.540479	-1087.040651	1245.350967	114.438020	-1153.500909	1215.327136	169.477169	-961.436013	1304.142524	352.614766	-913.972769	1247.568764	326.282612	-896.057490	1333.078758	399.027791	-1238.807377	1528.819758	531.193689	-1458.730867	1463.299839	566.201003	-1459.251957	1426.677562	599.231684	-1514.576609	1426.889428	583.582419	-1575.066478	1388.058109	602.073846	-1576.745462	1344.306258	532.407204	-1524.256275	1127.386532	710.783732	-1598.738788	1130.959481	733.992049	-1528.818621	1046.063230	754.277430	-1344.132419	993.507010	197.401583	-1305.781772	996.305589	426.704442	-1466.886876	1122.614809	357.283345	-1489.406954	1097.205485	333.303410	-1480.924150	1096.895409	389.776106	-1534.306546	775.010497	155.106605	-1524.037402	690.376866	151.726366	-1478.557767	676.792456	156.220403	-1567.016790	649.561796	163.938832	-1630.131775	502.493200	178.935831	-1710.146689	334.696767	256.621650	-1766.304131	319.714664	192.946138	-1742.236564	296.834413	225.091527	-1795.601741	241.808861	262.784478	-1988.455001	155.066633	302.278244	-1810.824009	54.302110	312.847216	-1849.373053	47.568689	216.197838	-1805.935698	48.133407	258.725898	-1234.266236	780.571244	503.690882	-1166.918880	773.364171	493.318693	-1146.340143	795.919987	477.917668	-1130.591070	697.590840	483.130282	-1081.425524	608.143537	455.134424	-1127.746262	489.525944	412.891843	-1226.877616	489.976076	456.704738	-1203.273800	454.478599	439.447296	-1234.861833	416.544364	409.172627	-1406.904053	355.520109	417.206167	-1473.424311	353.770817	363.910226	-1311.387659	197.244099	372.137021	-1307.668707	209.526470	413.840357	-1351.922289	229.584942	462.902190	
561	2.800000	-1108.678154	1791.308424	388.134671	-1253.985007	1750.918455	278.510795	-1247.812382	1743.285652	430.622441	-1284.150928	1575.254289	348.330238	-1384.938916	1240.818651	337.293378	-1150.795810	1477.128371	362.524892	-1162.588277	1592.617839	221.454035	-1110.451898	1396.672748	108.391649	-1074.866324	1378.054352	135.726990	-1093.405229	1329.456766	105.874390	-1051.920025	1251.047001	116.358270	-1120.049427	1219.547010	168.856661	-934.404385	1309.455042	358.617157	-885.527222	1253.596110	333.116701	-870.967039	1338.491203	407.088370	-1210.970663	1530.514612	532.047791	-1430.773053	1467.871166	565.057965	-1432.199815	1431.196508	597.598977	-1487.244875	1431.911660	581.572400	-1548.270927	1394.108148	598.956449	-1549.879026	1349.820337	529.483996	-1497.920431	1134.919021	711.651891	-1572.463808	1138.616128	734.298779	-1502.465079	1053.672806	756.013656	-1310.202280	992.358311	197.401477	-1274.026457	999.901935	426.834692	-1434.963998	1122.774254	353.290154	-1456.848496	1097.163450	329.291167	-1449.500554	1097.423431	385.754982	-1506.152226	777.972024	153.972135	-1498.747920	692.819745	152.002185	-1453.718505	677.985166	157.673721	-1543.355023	653.738730	163.775968	-1612.450988	509.758992	179.605184	-1695.330057	341.998394	255.575991	-1752.123089	328.907937	191.808322	-1728.302761	305.374135	223.338911	-1781.768875	249.840312	260.387267	-1975.122466	170.449875	299.992306	-1807.542068	55.688431	312.117474	-1846.778763	50.484334	215.798291	-1803.493822	48.524811	258.122358	-1201.878838	785.116166	502.708603	-1134.372453	779.143128	492.810262	-1114.138687	802.485745	478.249409	-1096.840741	703.927582	481.673406	-1045.103083	615.226277	455.377367	-1082.574445	492.814230	413.211727	-1181.311138	485.589510	457.176456	-1155.129194	451.997273	439.711515	-1183.761169	411.992729	409.191159	-1351.132862	337.627865	416.965552	-1417.389740	330.600567	363.485680	-1243.332630	187.766870	371.249030	-1240.989535	199.849823	413.092588	-1286.759361	215.817687	462.044193	
562	2.805000	-1080.602181	1793.210087	389.770711	-1226.210300	1752.902057	280.511160	-1219.528732	1745.170670	432.590347	-1255.500203	1576.777735	349.135350	-1354.364887	1241.761296	332.484795	-1122.112042	1479.683139	364.432846	-1132.896651	1595.590886	224.605692	-1075.736358	1401.975561	111.109550	-1041.176730	1383.039553	139.447682	-1058.214231	1334.886132	107.957690	-1017.486992	1256.571473	117.871994	-1087.202618	1223.499402	167.659707	-907.688841	1313.013617	364.107720	-857.467236	1257.954824	339.062947	-846.277549	1341.590569	414.914684	-1183.040649	1532.147390	532.985964	-1402.719551	1471.910717	564.498337	-1404.804319	1434.924912	596.236088	-1459.649076	1436.067609	579.937422	-1521.012898	1399.060055	595.974821	-1522.450560	1354.559600	526.513370	-1470.326434	1141.290350	712.040683	-1544.829612	1144.919726	734.463667	-1474.594680	1060.042843	757.101386	-1276.241074	991.484543	197.504759	-1242.303740	1003.493256	426.980929	-1403.027320	1123.148750	349.172211	-1424.384270	1097.398230	325.034463	-1418.097407	1098.109810	381.493520	-1476.960070	780.812864	152.757963	-1472.036836	695.297589	152.336885	-1427.493945	679.404870	159.376506	-1518.075004	657.814356	163.643375	-1592.546596	516.968366	180.416213	-1678.554242	349.448363	254.604659	-1735.985125	338.406749	190.747391	-1712.467838	314.150678	221.686652	-1766.109533	258.226558	258.029576	-1959.674878	186.849367	297.876937	-1803.370724	58.192234	311.431095	-1843.400874	54.637481	215.543738	-1800.351099	49.865436	257.556081	-1170.319607	788.668304	501.633306	-1102.722212	783.501070	492.380972	-1082.645005	807.497540	478.818801	-1064.451738	708.689581	480.241654	-1010.360729	620.805621	455.809860	-1038.803839	495.277125	413.647580	-1136.562195	480.338093	457.712564	-1107.940856	448.895723	439.992875	-1133.426099	407.062816	409.194253	-1294.943657	319.640188	416.463218	-1360.548993	307.398010	362.824498	-1175.490712	179.437105	369.691873	-1174.459928	191.031908	411.720727	-1221.420100	202.497317	460.579624	
